<svg xmlns="http://www.w3.org/2000/svg" xmlns:xlink="http://www.w3.org/1999/xlink" width="500" zoomAndPan="magnify" viewBox="0 0 375 374.999991" height="500" preserveAspectRatio="xMidYMid meet" version="1.0"><defs><clipPath id="39c364a6f7"><path d="M 0 187.5 L 375 187.5 L 375 375 L 0 375 Z M 0 187.5 " clip-rule="nonzero"/></clipPath><clipPath id="d324270368"><path d="M 187.5 187.5 C 32.367188 187.5 -93.390625 313.261719 -93.390625 468.390625 C -93.390625 623.523438 32.367188 749.285156 187.5 749.285156 C 342.632812 749.285156 468.390625 623.523438 468.390625 468.390625 C 468.390625 313.261719 342.632812 187.5 187.5 187.5 Z M 187.5 187.5 " clip-rule="nonzero"/></clipPath><clipPath id="f040399a18"><path d="M 116.914062 56 L 257.914062 56 L 257.914062 186 L 116.914062 186 Z M 116.914062 56 " clip-rule="nonzero"/></clipPath></defs><g clip-path="url(#39c364a6f7)"><g clip-path="url(#d324270368)"><path fill="#dab2ff" d="M -93.390625 187.5 L 468.390625 187.5 L 468.390625 749.285156 L -93.390625 749.285156 Z M -93.390625 187.5 " fill-opacity="1" fill-rule="nonzero"/></g></g><g clip-path="url(#f040399a18)"><path fill="#dab2ff" d="M 223.894531 157.675781 C 225.730469 155.832031 227.554688 153.9375 229.359375 151.992188 C 230.003906 151.292969 230.628906 150.578125 231.273438 149.867188 C 232.597656 148.390625 233.902344 146.902344 235.1875 145.371094 C 235.878906 144.546875 236.550781 143.726562 237.226562 142.894531 C 238.480469 141.339844 239.679688 139.765625 240.863281 138.164062 C 241.445312 137.378906 242.035156 136.613281 242.597656 135.820312 C 244.277344 133.453125 245.882812 131.042969 247.359375 128.597656 C 247.4375 128.472656 247.5 128.339844 247.570312 128.203125 C 248.949219 125.882812 250.207031 123.515625 251.359375 121.132812 C 251.75 120.324219 252.078125 119.5 252.449219 118.683594 C 253.230469 116.925781 253.945312 115.15625 254.582031 113.375 C 254.910156 112.457031 255.207031 111.539062 255.492188 110.613281 C 256.046875 108.808594 256.488281 106.992188 256.863281 105.164062 C 257.035156 104.324219 257.246094 103.492188 257.382812 102.644531 C 257.796875 100.003906 258.078125 97.34375 258.078125 94.679688 C 258.078125 73.410156 240.839844 56.179688 219.582031 56.179688 C 199.261719 56.179688 187.496094 73.824219 187.496094 73.824219 C 187.496094 73.824219 175.734375 56.179688 155.414062 56.179688 C 134.152344 56.179688 116.914062 73.410156 116.914062 94.679688 C 116.914062 97.34375 117.195312 100.003906 117.613281 102.652344 C 117.746094 103.492188 117.957031 104.332031 118.128906 105.171875 C 118.507812 107 118.953125 108.808594 119.503906 110.621094 C 119.785156 111.546875 120.089844 112.464844 120.414062 113.382812 C 121.046875 115.164062 121.761719 116.933594 122.546875 118.691406 C 122.90625 119.507812 123.242188 120.332031 123.636719 121.140625 C 124.789062 123.523438 126.042969 125.882812 127.421875 128.210938 C 127.503906 128.339844 127.558594 128.472656 127.636719 128.605469 C 129.109375 131.058594 130.71875 133.460938 132.394531 135.828125 C 132.960938 136.621094 133.546875 137.386719 134.128906 138.171875 C 135.3125 139.773438 136.519531 141.347656 137.769531 142.902344 C 138.441406 143.742188 139.117188 144.5625 139.808594 145.378906 C 141.085938 146.910156 142.394531 148.398438 143.71875 149.875 C 144.355469 150.585938 144.984375 151.300781 145.632812 152 C 147.4375 153.945312 149.265625 155.839844 151.101562 157.683594 C 151.242188 157.824219 151.375 157.976562 151.515625 158.117188 C 155.375 161.949219 159.25 165.519531 162.988281 168.820312 C 163.121094 168.9375 163.257812 169.046875 163.390625 169.164062 C 169.789062 174.78125 175.765625 179.574219 180.414062 183.21875 C 180.414062 183.21875 183.535156 185.589844 187.496094 185.589844 C 191.457031 185.589844 194.578125 183.21875 194.578125 183.21875 C 199.230469 179.574219 205.207031 174.78125 211.605469 169.164062 C 211.738281 169.046875 211.871094 168.9375 212.003906 168.820312 C 215.746094 165.519531 219.621094 161.949219 223.476562 158.117188 C 223.621094 157.96875 223.753906 157.816406 223.894531 157.675781 Z M 223.894531 157.675781 " fill-opacity="1" fill-rule="nonzero"/></g></svg>